HIERARCHY
ROOT Hips
{
	OFFSET 0.000000 100.481300 0.000000
	CHANNELS 6 Xposition Yposition Zposition Xrotation Yrotation Zrotation
	JOINT Spine
	{
		OFFSET -0.279200 12.230698 -2.892100
		CHANNELS 3 Xrotation Yrotation Zrotation
		JOINT Spine1
		{
			OFFSET -0.325700 14.269203 -3.374200
			CHANNELS 3 Xrotation Yrotation Zrotation
			JOINT Spine2
			{
				OFFSET -0.372300 16.307602 -0.352600
				CHANNELS 3 Xrotation Yrotation Zrotation
				JOINT Neck
				{
					OFFSET -0.418800 17.814194 8.416900
					CHANNELS 3 Xrotation Yrotation Zrotation
					JOINT Head
					{
						OFFSET 0.000000 7.031097 3.806800
						CHANNELS 3 Xrotation Yrotation Zrotation
						JOINT HeadTop_End
						{
							OFFSET 0.000000 24.646606 12.978600
							CHANNELS 3 Xrotation Yrotation Zrotation
							End Site
							{
								OFFSET 0.000000 27.854965 0.000000
							}
						}
					}
				}
				JOINT LeftShoulder
				{
					OFFSET 16.952999 14.495407 -7.737500
					CHANNELS 3 Xrotation Yrotation Zrotation
					JOINT LeftArm
					{
						OFFSET 9.308998 -2.777710 0.208600
						CHANNELS 3 Xrotation Yrotation Zrotation
						JOINT LeftForeArm
						{
							OFFSET 29.972298 0.000000 0.000000
							CHANNELS 3 Xrotation Yrotation Zrotation
							JOINT LeftHand
							{
								OFFSET 26.026505 0.000000 0.000000
								CHANNELS 3 Xrotation Yrotation Zrotation
								JOINT LeftHandThumb1
								{
									OFFSET 12.240501 -7.147949 9.207150
									CHANNELS 3 Xrotation Yrotation Zrotation
									JOINT LeftHandThumb2
									{
										OFFSET 4.138618 -2.389435 2.389433
										CHANNELS 3 Xrotation Yrotation Zrotation
										JOINT LeftHandThumb3
										{
											OFFSET 2.726913 -1.574387 1.574386
											CHANNELS 3 Xrotation Yrotation Zrotation
											JOINT LeftHandThumb4
											{
												OFFSET 3.941010 -2.275345 2.275342
												CHANNELS 3 Xrotation Yrotation Zrotation
												End Site
												{
													OFFSET -0.005798 5.087799 0.009903
												}
											}
										}
									}
								}
								JOINT LeftHandIndex1
								{
									OFFSET 24.424698 -1.985611 5.953459
									CHANNELS 3 Xrotation Yrotation Zrotation
									JOINT LeftHandIndex2
									{
										OFFSET 6.426697 0.000000 0.000000
										CHANNELS 3 Xrotation Yrotation Zrotation
										JOINT LeftHandIndex3
										{
											OFFSET 5.337898 0.000000 0.000000
											CHANNELS 3 Xrotation Yrotation Zrotation
											JOINT LeftHandIndex4
											{
												OFFSET 4.409401 0.000000 0.000000
												CHANNELS 3 Xrotation Yrotation Zrotation
												End Site
												{
													OFFSET 0.000000 4.409363 0.014373
												}
											}
										}
									}
								}
								JOINT LeftHandMiddle1
								{
									OFFSET 23.810104 0.000000 0.000000
									CHANNELS 3 Xrotation Yrotation Zrotation
									JOINT LeftHandMiddle2
									{
										OFFSET 7.176498 0.000000 0.000000
										CHANNELS 3 Xrotation Yrotation Zrotation
										JOINT LeftHandMiddle3
										{
											OFFSET 6.774902 0.000000 0.000000
											CHANNELS 3 Xrotation Yrotation Zrotation
											JOINT LeftHandMiddle4
											{
												OFFSET 5.403328 0.000000 0.000000
												CHANNELS 3 Xrotation Yrotation Zrotation
												End Site
												{
													OFFSET -0.027702 5.403244 0.017414
												}
											}
										}
									}
								}
								JOINT LeftHandRing1
								{
									OFFSET 22.908401 -0.839279 -6.020567
									CHANNELS 3 Xrotation Yrotation Zrotation
									JOINT LeftHandRing2
									{
										OFFSET 6.337502 0.000000 0.000000
										CHANNELS 3 Xrotation Yrotation Zrotation
										JOINT LeftHandRing3
										{
											OFFSET 5.779297 0.000000 0.000000
											CHANNELS 3 Xrotation Yrotation Zrotation
											JOINT LeftHandRing4
											{
												OFFSET 4.965698 0.000000 0.000000
												CHANNELS 3 Xrotation Yrotation Zrotation
												End Site
												{
													OFFSET 0.000000 4.965668 0.016186
												}
											}
										}
									}
								}
								JOINT LeftHandPinky1
								{
									OFFSET 20.037003 -1.530319 -10.950146
									CHANNELS 3 Xrotation Yrotation Zrotation
									JOINT LeftHandPinky2
									{
										OFFSET 5.254700 0.000000 0.000000
										CHANNELS 3 Xrotation Yrotation Zrotation
										JOINT LeftHandPinky3
										{
											OFFSET 4.810204 0.000000 0.000000
											CHANNELS 3 Xrotation Yrotation Zrotation
											JOINT LeftHandPinky4
											{
												OFFSET 3.647202 0.000000 0.000000
												CHANNELS 3 Xrotation Yrotation Zrotation
												End Site
												{
													OFFSET 0.000000 3.647186 0.011889
												}
											}
										}
									}
								}
							}
						}
					}
				}
				JOINT RightShoulder
				{
					OFFSET -15.141001 14.495407 -7.737500
					CHANNELS 3 Xrotation Yrotation Zrotation
					JOINT RightArm
					{
						OFFSET -9.308998 -2.777710 0.208500
						CHANNELS 3 Xrotation Yrotation Zrotation
						JOINT RightForeArm
						{
							OFFSET -29.972300 0.000000 0.000000
							CHANNELS 3 Xrotation Yrotation Zrotation
							JOINT RightHand
							{
								OFFSET -26.026505 0.000000 0.000000
								CHANNELS 3 Xrotation Yrotation Zrotation
								JOINT RightHandThumb1
								{
									OFFSET -12.240601 -7.148026 9.207092
									CHANNELS 3 Xrotation Yrotation Zrotation
									JOINT RightHandThumb2
									{
										OFFSET -4.138618 -2.389435 2.389433
										CHANNELS 3 Xrotation Yrotation Zrotation
										JOINT RightHandThumb3
										{
											OFFSET -2.726974 -1.574417 1.574421
											CHANNELS 3 Xrotation Yrotation Zrotation
											JOINT RightHandThumb4
											{
												OFFSET -3.941010 -2.275345 2.275343
												CHANNELS 3 Xrotation Yrotation Zrotation
												End Site
												{
													OFFSET 0.005814 5.087799 0.009927
												}
											}
										}
									}
								}
								JOINT RightHandIndex1
								{
									OFFSET -24.424698 -1.985657 5.953444
									CHANNELS 3 Xrotation Yrotation Zrotation
									JOINT RightHandIndex2
									{
										OFFSET -6.426697 0.000000 0.000000
										CHANNELS 3 Xrotation Yrotation Zrotation
										JOINT RightHandIndex3
										{
											OFFSET -5.337898 0.000000 0.000000
											CHANNELS 3 Xrotation Yrotation Zrotation
											JOINT RightHandIndex4
											{
												OFFSET -4.409401 0.000000 0.000000
												CHANNELS 3 Xrotation Yrotation Zrotation
												End Site
												{
													OFFSET 0.000000 4.409363 0.014408
												}
											}
										}
									}
								}
								JOINT RightHandMiddle1
								{
									OFFSET -23.810097 0.000000 0.000000
									CHANNELS 3 Xrotation Yrotation Zrotation
									JOINT RightHandMiddle2
									{
										OFFSET -7.176498 0.000000 0.000000
										CHANNELS 3 Xrotation Yrotation Zrotation
										JOINT RightHandMiddle3
										{
											OFFSET -6.774902 0.000000 0.000000
											CHANNELS 3 Xrotation Yrotation Zrotation
											JOINT RightHandMiddle4
											{
												OFFSET -5.403328 0.000000 0.000000
												CHANNELS 3 Xrotation Yrotation Zrotation
												End Site
												{
													OFFSET 0.027702 5.403244 0.017457
												}
											}
										}
									}
								}
								JOINT RightHandRing1
								{
									OFFSET -22.908302 -0.839325 -6.020576
									CHANNELS 3 Xrotation Yrotation Zrotation
									JOINT RightHandRing2
									{
										OFFSET -6.337502 0.000000 0.000000
										CHANNELS 3 Xrotation Yrotation Zrotation
										JOINT RightHandRing3
										{
											OFFSET -5.779297 0.000000 0.000000
											CHANNELS 3 Xrotation Yrotation Zrotation
											JOINT RightHandRing4
											{
												OFFSET -4.965698 0.000000 0.000000
												CHANNELS 3 Xrotation Yrotation Zrotation
												End Site
												{
													OFFSET 0.000000 4.965668 0.016226
												}
											}
										}
									}
								}
								JOINT RightHandPinky1
								{
									OFFSET -20.037003 -1.530334 -10.950259
									CHANNELS 3 Xrotation Yrotation Zrotation
									JOINT RightHandPinky2
									{
										OFFSET -5.254700 0.000000 0.000000
										CHANNELS 3 Xrotation Yrotation Zrotation
										JOINT RightHandPinky3
										{
											OFFSET -4.810204 0.000000 0.000000
											CHANNELS 3 Xrotation Yrotation Zrotation
											JOINT RightHandPinky4
											{
												OFFSET -3.647202 0.000000 0.000000
												CHANNELS 3 Xrotation Yrotation Zrotation
												End Site
												{
													OFFSET 0.000000 3.647186 0.011917
												}
											}
										}
									}
								}
							}
						}
					}
				}
			}
		}
	}
	JOINT LeftUpLeg
	{
		OFFSET 15.427100 -6.655098 0.678600
		CHANNELS 3 Xrotation Yrotation Zrotation
		JOINT LeftLeg
		{
			OFFSET 4.081073 -39.591068 13.024000
			CHANNELS 3 Xrotation Yrotation Zrotation
			JOINT LeftFoot
			{
				OFFSET -4.081074 -37.707932 -15.979700
				CHANNELS 3 Xrotation Yrotation Zrotation
				JOINT LeftToeBase
				{
					OFFSET 5.346399 -15.068900 20.645000
					CHANNELS 3 Xrotation Yrotation Zrotation
					JOINT LeftToe_End
					{
						OFFSET 2.754700 0.931300 11.300900
						CHANNELS 3 Xrotation Yrotation Zrotation
						End Site
						{
							OFFSET 0.000000 11.669021 0.000000
						}
					}
				}
			}
		}
	}
	JOINT RightUpLeg
	{
		OFFSET -15.569500 -6.655098 0.678600
		CHANNELS 3 Xrotation Yrotation Zrotation
		JOINT RightLeg
		{
			OFFSET -4.081825 -39.591045 13.023800
			CHANNELS 3 Xrotation Yrotation Zrotation
			JOINT RightFoot
			{
				OFFSET 4.081824 -37.707954 -15.979600
				CHANNELS 3 Xrotation Yrotation Zrotation
				JOINT RightToeBase
				{
					OFFSET -5.346400 -15.068900 20.645000
					CHANNELS 3 Xrotation Yrotation Zrotation
					JOINT RightToe_End
					{
						OFFSET -2.754700 0.931300 11.300900
						CHANNELS 3 Xrotation Yrotation Zrotation
						End Site
						{
							OFFSET 0.000000 11.669021 0.000000
						}
					}
				}
			}
		}
	}
}
MOTION
Frames: 5
Frame Time: 0.033333
0.081476 98.604759 -0.414365 5.148980 -0.872869 0.656251 9.349644 1.221828 -1.676683 4.452392 0.390640 -0.058884 4.450128 0.417335 -0.037636 0.106042 -0.477868 5.943023 -14.756806 6.032973 -6.049694 0.000000 0.000000 -0.000000 -9.381430 24.112482 31.872927 -58.757044 -17.563065 11.048888 0.000009 -18.899477 0.000016 -47.220219 -27.216519 77.926106 24.261080 -22.265688 0.877090 20.335971 48.442662 4.457128 6.805420 53.179368 24.697074 -0.000000 0.000001 0.000001 6.552650 3.126736 -83.624226 6.351869 5.829674 -94.918422 0.297291 1.844218 -18.312919 -0.000000 -0.000001 -0.000003 3.981716 7.974460 -81.368481 5.529516 5.842254 -86.844161 0.371363 2.054423 -20.490498 -0.000001 0.000000 -0.000001 6.477256 8.339434 -81.783340 5.418846 5.835132 -85.756167 0.955167 3.207812 -33.155446 0.000001 0.000000 -0.000001 5.717057 12.605503 -69.239424 3.414720 5.321287 -65.354706 2.161208 4.544036 -50.854597 0.000000 -0.000000 0.000001 -12.176003 -31.986199 -30.673307 -74.430293 18.351460 5.043265 0.000011 15.813257 -0.000002 -39.641622 28.441237 -60.426158 14.180645 25.456284 7.489879 15.779651 -36.326341 -9.246130 39.853184 -71.536567 3.867481 0.000000 -0.000001 0.000003 2.700605 3.330658 81.960023 4.755263 -4.656118 91.208085 0.855918 -2.692639 35.262323 0.000001 0.000001 -0.000002 4.540713 -6.928684 87.866736 3.676046 -4.552867 77.825211 2.345524 -4.044057 60.213015 -0.000000 -0.000001 -0.000001 5.103130 -6.993677 84.320065 3.520572 -4.516653 75.859120 1.714015 -3.610891 50.773936 0.000000 -0.000001 0.000002 1.908197 -7.641848 65.298316 1.963102 -3.800241 54.626634 2.471042 -4.113175 61.977772 0.000001 -0.000000 0.000003 -10.496666 11.743089 9.513881 5.567594 -1.537458 0.351942 -0.080003 0.837182 -5.584135 -0.727708 -0.000005 -0.000004 -0.000000 0.000001 0.000000 -11.781761 -8.207083 -6.321739 6.948262 1.588454 -0.274089 -1.026289 -0.184591 5.025608 0.374807 -0.000003 0.000001 -0.000000 -0.000000 0.000000 
0.489394 98.402008 -0.185307 5.305759 -0.952632 0.232027 9.253662 1.206707 -1.337139 4.436461 0.362353 -0.077535 4.434412 0.387689 -0.057618 -2.128404 -1.072641 4.728421 -15.136329 5.557513 -4.165990 0.000000 0.000000 0.000000 -9.284653 24.127377 31.573605 -58.358694 -14.817003 11.521372 -0.000013 -24.980672 0.000009 -46.700517 -25.453960 77.672365 24.261062 -22.265659 0.877075 20.335964 48.442642 4.457148 6.805443 53.179382 24.697051 0.000001 -0.000000 0.000000 6.552665 3.126743 -83.624239 6.351868 5.829655 -94.918422 0.297286 1.844212 -18.312931 0.000001 -0.000001 -0.000002 3.981707 7.974463 -81.368460 5.529529 5.842261 -86.844161 0.371371 2.054432 -20.490494 0.000000 0.000000 -0.000000 6.477259 8.339431 -81.783333 5.418829 5.835139 -85.756160 0.955171 3.207834 -33.155446 0.000001 -0.000000 0.000003 5.717048 12.605465 -69.239438 3.414699 5.321306 -65.354706 2.161211 4.544042 -50.854600 -0.000000 -0.000000 0.000001 -11.792055 -32.479489 -29.120146 -73.113931 19.149219 5.022963 0.000013 17.685945 0.000002 -40.583328 28.187818 -58.868192 14.180649 25.456284 7.489881 15.660179 -35.959450 -9.408938 38.139104 -71.518043 2.225749 -0.000001 -0.000008 0.000001 2.690822 3.454084 81.378781 4.793995 -4.655151 91.685386 0.855693 -2.692317 35.257638 0.000001 0.000001 -0.000002 4.531530 -6.928340 87.753574 3.669333 -4.551411 77.740489 2.346513 -4.044620 60.227201 0.000000 0.000000 0.000000 5.095351 -6.994395 84.220221 3.513785 -4.514942 75.772725 1.714007 -3.610886 50.773939 0.000001 0.000000 -0.000001 1.897136 -7.636079 65.180263 1.951782 -3.792231 54.455623 2.471045 -4.113178 61.977765 0.000001 -0.000000 -0.000001 -11.179891 11.603376 9.734840 6.918700 -1.406236 0.630006 -0.961470 0.809653 -5.537408 -0.713964 -0.000002 -0.000001 0.000000 0.000000 -0.000000 -11.851296 -8.228371 -6.218045 7.085964 1.711999 -0.146380 -1.193188 -0.260519 5.226320 0.410900 0.000001 -0.000000 0.000000 0.000001 0.000000 
0.813691 98.366333 0.143841 5.358470 -1.172367 0.049643 9.075563 1.182259 -1.209854 4.401041 0.340665 -0.100512 4.399182 0.365046 -0.081531 -4.412254 -1.716506 3.250209 -15.323116 4.924134 -2.099138 -0.000000 0.000000 -0.000000 -9.131702 24.150395 31.071159 -57.578706 -13.584942 12.155503 -0.000004 -28.699017 -0.000001 -46.514261 -24.447472 76.648267 24.261071 -22.265674 0.877091 20.335959 48.442625 4.457155 6.805460 53.179368 24.697035 0.000001 0.000000 -0.000001 6.552671 3.126725 -83.624198 6.351844 5.829650 -94.918422 0.297290 1.844215 -18.312927 -0.000000 0.000000 -0.000002 3.981710 7.974457 -81.368467 5.529521 5.842254 -86.844155 0.371370 2.054448 -20.490503 0.000001 0.000000 0.000001 6.477247 8.339426 -81.783319 5.418833 5.835134 -85.756160 0.955168 3.207836 -33.155453 0.000001 -0.000001 0.000001 5.717049 12.605468 -69.239438 3.414687 5.321291 -65.354720 2.161209 4.544054 -50.854594 -0.000001 0.000000 -0.000000 -11.429203 -32.937231 -27.688238 -71.873220 20.428905 5.223182 0.000000 19.035833 0.000002 -41.346823 28.032821 -57.367599 14.180623 25.456303 7.489897 15.385754 -35.070105 -9.790433 36.270401 -71.471202 0.435248 -0.000000 -0.000002 0.000001 2.721238 3.580828 80.479211 4.755399 -4.656138 91.210011 0.854961 -2.691312 35.242362 0.000000 -0.000000 0.000001 4.518578 -6.927825 87.594137 3.664373 -4.550331 77.678205 2.347942 -4.045423 60.247295 0.000000 -0.000000 0.000000 5.110317 -6.997999 84.082689 3.513085 -4.514742 75.763949 1.714171 -3.611000 50.776330 0.000001 -0.000000 -0.000000 1.881728 -7.628033 65.015027 1.943524 -3.786290 54.330706 2.471532 -4.113444 61.984493 -0.000000 0.000000 -0.000000 -11.121831 11.604291 9.775187 7.356448 -1.188587 0.682198 -1.512172 0.816012 -5.447907 -0.698335 -0.000007 -0.000001 0.000000 -0.000000 -0.000000 -11.655579 -8.268758 -6.197266 6.908678 1.947914 -0.131365 -1.254528 -0.279142 5.420372 0.430247 -0.000004 0.000000 0.000000 -0.000000 0.000000 
1.118171 98.330139 0.556522 5.268496 -1.550438 -0.025173 8.837948 1.154458 -1.146134 4.347763 0.322112 -0.117850 4.346098 0.345747 -0.099719 -6.740884 -2.324586 1.473474 -15.483480 4.251828 0.143483 0.000000 -0.000000 -0.000000 -8.877084 23.971292 30.437891 -56.348733 -12.882171 13.113477 0.000005 -31.403253 0.000001 -46.517673 -23.761991 75.324815 24.261059 -22.265659 0.877081 20.335976 48.442659 4.457131 6.805430 53.179378 24.697061 -0.000001 0.000003 0.000001 6.552650 3.126743 -83.624198 6.351867 5.829645 -94.918422 0.297285 1.844215 -18.312932 0.000001 -0.000001 -0.000001 3.981703 7.974466 -81.368467 5.529520 5.842251 -86.844161 0.371366 2.054442 -20.490501 -0.000000 -0.000000 0.000002 6.477258 8.339441 -81.783340 5.418836 5.835120 -85.756167 0.955159 3.207821 -33.155446 0.000000 -0.000000 0.000001 5.717042 12.605485 -69.239431 3.414688 5.321280 -65.354720 2.161221 4.544074 -50.854590 0.000000 -0.000000 0.000001 -11.031088 -33.189487 -26.331055 -70.997146 22.036041 5.617983 -0.000009 20.066554 0.000013 -41.622179 27.851058 -55.865893 14.180639 25.456322 7.489905 14.990916 -33.654323 -10.361247 33.295345 -71.369835 -2.424939 -0.000000 -0.000006 -0.000001 2.788748 3.722882 79.238780 4.755418 -4.656126 91.210230 0.855018 -2.691395 35.243418 0.000001 0.000000 0.000001 4.492700 -6.926702 87.275392 3.646251 -4.546372 77.449626 2.351328 -4.047363 60.295394 0.000000 -0.000000 -0.000000 5.108885 -7.002663 83.776635 3.502304 -4.512021 75.626969 1.717664 -3.613871 50.831757 -0.000001 0.000000 -0.000000 1.855910 -7.614415 64.738118 1.931214 -3.777451 54.143937 2.482688 -4.119340 62.139955 0.000001 -0.000000 0.000002 -10.698762 11.661681 9.738069 7.663186 -0.851569 0.710127 -2.113955 0.851668 -5.401417 -0.694377 -0.000006 -0.000002 -0.000000 0.000001 0.000000 -11.364047 -8.258713 -6.188424 6.847420 2.290804 -0.246530 -1.408553 -0.285656 5.654880 0.449039 0.000004 -0.000002 -0.000000 -0.000000 0.000000 
1.398185 98.341873 1.031029 5.040207 -2.001404 -0.067254 8.545057 1.151211 -1.084145 4.277392 0.310691 -0.122085 4.275872 0.333966 -0.104499 -9.201830 -2.858663 -0.481273 -15.480897 3.693729 2.354659 -0.000000 0.000000 0.000000 -8.530824 23.658006 29.621974 -55.100167 -12.784173 14.046482 0.000000 -33.420788 -0.000003 -46.286823 -23.229658 73.856236 24.261047 -22.265660 0.877075 20.335975 48.442628 4.457146 6.805436 53.179368 24.697044 0.000001 -0.000000 0.000000 6.552650 3.126751 -83.624219 6.351861 5.829658 -94.918408 0.297289 1.844220 -18.312922 -0.000000 0.000001 -0.000001 3.981699 7.974478 -81.368481 5.529512 5.842244 -86.844155 0.371369 2.054446 -20.490498 0.000000 -0.000000 0.000000 6.477247 8.339455 -81.783340 5.418845 5.835147 -85.756160 0.955169 3.207834 -33.155446 -0.000001 -0.000000 -0.000001 5.717054 12.605481 -69.239431 3.414686 5.321300 -65.354699 2.161205 4.544043 -50.854611 0.000001 0.000001 -0.000002 -10.564815 -33.283710 -24.909594 -70.738917 23.965361 6.280335 0.000004 20.946409 -0.000016 -41.131201 27.508568 -54.377971 14.180639 25.456291 7.489898 14.785831 -32.839922 -10.670432 31.503489 -71.292893 -4.153354 -0.000002 0.000001 -0.000000 2.796609 3.919113 78.267595 4.755548 -4.656134 91.211774 0.853613 -2.689374 35.213290 -0.000001 -0.000000 0.000000 4.484550 -6.926326 87.174920 3.628194 -4.542311 77.221791 2.354277 -4.049031 60.337160 0.000000 0.000000 -0.000000 5.074901 -7.002438 83.553158 3.497195 -4.510704 75.561918 1.717715 -3.613890 50.832747 -0.000000 -0.000000 -0.000001 1.840085 -7.605996 64.568025 1.919165 -3.768733 53.960830 2.483731 -4.119899 62.154544 -0.000000 -0.000000 0.000000 -9.937435 11.831412 9.693227 7.717173 -0.529584 0.652754 -2.659304 0.892672 -5.334753 -0.692403 -0.000004 0.000000 -0.000000 0.000000 -0.000000 -10.844522 -8.231671 -6.131083 6.675476 2.667382 -0.460727 -1.548615 -0.282629 5.922388 0.432112 0.000002 -0.000000 0.000000 -0.000001 -0.000000 
